<svg width="1152" height="205" viewBox="0 0 1152 205" fill="none" xmlns="http://www.w3.org/2000/svg">
<path d="M429.422 68H420.868L410.34 52.772V68H402.82V35.1H410.34V49.388L420.398 35.1H428.952L417.86 51.127L429.422 68ZM455.459 43.842C458.561 43.842 461.209 45.0483 463.402 47.461C465.595 49.8423 466.692 52.772 466.692 56.25C466.692 59.728 465.595 62.6733 463.402 65.086C461.209 67.4673 458.561 68.658 455.459 68.658C452.451 68.658 450.117 67.7023 448.456 65.791V77.4H441.406V44.5H448.456V46.709C450.117 44.7977 452.451 43.842 455.459 43.842ZM450.007 60.433C451.072 61.467 452.42 61.984 454.049 61.984C455.678 61.984 457.01 61.467 458.044 60.433C459.109 59.399 459.642 58.0047 459.642 56.25C459.642 54.4953 459.109 53.101 458.044 52.067C457.01 51.033 455.678 50.516 454.049 50.516C452.42 50.516 451.072 51.033 450.007 52.067C448.973 53.101 448.456 54.4953 448.456 56.25C448.456 58.0047 448.973 59.399 450.007 60.433ZM486.387 59.07C487.202 61.2633 489.082 62.36 492.027 62.36C493.938 62.36 495.442 61.7647 496.539 60.574L502.179 63.817C499.86 67.0443 496.445 68.658 491.933 68.658C487.985 68.658 484.82 67.483 482.439 65.133C480.089 62.783 478.914 59.822 478.914 56.25C478.914 52.7093 480.073 49.764 482.392 47.414C484.742 45.0327 487.75 43.842 491.416 43.842C494.831 43.842 497.667 45.0327 499.923 47.414C502.21 49.764 503.354 52.7093 503.354 56.25C503.354 57.2527 503.26 58.1927 503.072 59.07H486.387ZM486.246 53.806H496.351C495.662 51.3307 494.001 50.093 491.369 50.093C488.643 50.093 486.935 51.3307 486.246 53.806ZM537.455 61.42H540.51V74.298H533.648V68H520.582V74.298H513.72V61.42H516.634C517.887 59.4773 518.514 56.767 518.514 53.289V44.5H537.455V61.42ZM524.013 61.42H530.593V50.798H525.376V53.289C525.376 56.5477 524.921 59.258 524.013 61.42ZM570.336 44.5H575.506V68H568.644V56.25L558.586 68H553.416V44.5H560.278V56.25L570.336 44.5ZM609.115 44.5V51.268H602.112V68H595.062V51.268H587.965V44.5H609.115Z" fill="black"/>
<path d="M407.332 132.797C407.332 134.193 406.592 135.053 405.112 135.375V135.419C406.733 135.766 407.544 136.635 407.544 138.026C407.544 139.008 407.197 139.774 406.504 140.326C405.815 140.873 404.841 141.146 403.582 141.146C402.4 141.146 401.406 140.937 400.601 140.517V139.755C401.064 139.979 401.56 140.153 402.087 140.275C402.615 140.397 403.113 140.458 403.582 140.458C404.558 140.458 405.327 140.248 405.889 139.828C406.455 139.403 406.738 138.81 406.738 138.048C406.738 137.306 406.462 136.745 405.911 136.364C405.364 135.983 404.543 135.792 403.45 135.792H401.86V135.089H403.508C404.543 135.089 405.308 134.894 405.801 134.503C406.294 134.113 406.541 133.559 406.541 132.841C406.541 132.23 406.313 131.742 405.859 131.376C405.41 131.01 404.822 130.827 404.094 130.827C403.552 130.827 403.054 130.905 402.6 131.061C402.146 131.212 401.655 131.476 401.128 131.852L400.703 131.266C401.689 130.514 402.82 130.138 404.094 130.138C405.095 130.138 405.884 130.377 406.46 130.856C407.041 131.334 407.332 131.981 407.332 132.797ZM416.061 141L415.877 139.74H415.819C415.418 140.253 415.006 140.617 414.581 140.832C414.161 141.042 413.663 141.146 413.087 141.146C412.306 141.146 411.698 140.946 411.263 140.546C410.829 140.146 410.611 139.591 410.611 138.883C410.611 138.107 410.934 137.504 411.578 137.074C412.228 136.645 413.165 136.417 414.391 136.393L415.907 136.349V135.822C415.907 135.065 415.753 134.494 415.445 134.108C415.138 133.722 414.642 133.529 413.958 133.529C413.221 133.529 412.457 133.734 411.666 134.145L411.395 133.515C412.269 133.104 413.133 132.899 413.988 132.899C414.862 132.899 415.514 133.126 415.943 133.581C416.378 134.035 416.595 134.743 416.595 135.705V141H416.061ZM413.131 140.487C413.98 140.487 414.649 140.246 415.138 139.762C415.631 139.274 415.877 138.598 415.877 137.733V136.95L414.486 137.008C413.368 137.062 412.569 137.238 412.091 137.536C411.617 137.829 411.38 138.288 411.38 138.913C411.38 139.411 411.532 139.799 411.834 140.077C412.142 140.351 412.574 140.487 413.131 140.487ZM426.188 141H425.471V133.712H422.651C422.504 135.641 422.324 137.113 422.109 138.129C421.899 139.14 421.625 139.884 421.289 140.363C420.957 140.836 420.524 141.073 419.992 141.073C419.802 141.073 419.636 141.054 419.494 141.015V140.355C419.587 140.385 419.719 140.399 419.89 140.399C420.441 140.399 420.886 139.818 421.223 138.656C421.564 137.489 421.823 135.617 421.999 133.039H426.188V141ZM433.57 141.146C432.413 141.146 431.509 140.79 430.86 140.077C430.215 139.364 429.893 138.366 429.893 137.082C429.893 135.812 430.206 134.796 430.831 134.035C431.456 133.268 432.298 132.885 433.357 132.885C434.295 132.885 435.035 133.212 435.577 133.866C436.119 134.521 436.39 135.409 436.39 136.532V137.118H430.655C430.665 138.212 430.918 139.047 431.417 139.623C431.919 140.199 432.637 140.487 433.57 140.487C434.024 140.487 434.422 140.456 434.764 140.392C435.11 140.329 435.547 140.192 436.075 139.982V140.641C435.625 140.836 435.21 140.968 434.83 141.037C434.449 141.11 434.029 141.146 433.57 141.146ZM433.357 133.529C432.591 133.529 431.976 133.783 431.512 134.291C431.048 134.794 430.777 135.521 430.699 136.474H435.621C435.621 135.551 435.42 134.831 435.02 134.313C434.62 133.791 434.065 133.529 433.357 133.529ZM441.588 136.474C443.029 136.474 443.749 135.978 443.749 134.987C443.749 134.513 443.583 134.152 443.251 133.903C442.919 133.654 442.445 133.529 441.83 133.529C441.439 133.529 441.076 133.576 440.739 133.668C440.402 133.756 440.041 133.886 439.655 134.057L439.384 133.456C440.233 133.075 441.059 132.885 441.859 132.885C442.729 132.885 443.388 133.065 443.837 133.427C444.286 133.788 444.511 134.289 444.511 134.928C444.511 135.851 444.037 136.439 443.09 136.693V136.737C443.681 136.884 444.11 137.128 444.379 137.47C444.647 137.807 444.782 138.239 444.782 138.766C444.782 139.503 444.511 140.084 443.969 140.509C443.432 140.934 442.685 141.146 441.728 141.146C441.21 141.146 440.736 141.098 440.307 141C439.882 140.897 439.53 140.763 439.252 140.597V139.872C439.755 140.111 440.189 140.275 440.556 140.363C440.922 140.446 441.312 140.487 441.728 140.487C442.45 140.487 443.012 140.336 443.412 140.033C443.817 139.726 444.02 139.289 444.02 138.722C444.02 138.17 443.827 137.763 443.441 137.499C443.056 137.235 442.477 137.104 441.706 137.104H440.6V136.474H441.588ZM453.423 133.668H450.771V141H450.054V133.668H447.336V133.039H453.423V133.668ZM457.289 136.393H460.094C461.964 136.393 462.899 137.128 462.899 138.598C462.899 139.354 462.638 139.945 462.115 140.37C461.593 140.79 460.843 141 459.867 141H456.563V133.039H457.289V136.393ZM457.289 137.082V140.312H459.984C460.677 140.312 461.207 140.165 461.573 139.872C461.944 139.579 462.13 139.149 462.13 138.583C462.13 138.056 461.966 137.675 461.639 137.44C461.312 137.201 460.746 137.082 459.94 137.082H457.289ZM478.108 134.958C478.108 135.46 477.984 135.856 477.735 136.144C477.486 136.427 477.081 136.625 476.519 136.737V136.789C477.159 136.862 477.62 137.047 477.903 137.345C478.191 137.638 478.335 138.061 478.335 138.612C478.335 139.379 478.082 139.97 477.574 140.385C477.071 140.795 476.333 141 475.362 141H472V133.039H475.376C476.285 133.039 476.966 133.202 477.42 133.529C477.879 133.856 478.108 134.333 478.108 134.958ZM477.566 138.598C477.566 137.621 476.817 137.133 475.318 137.133H472.725V140.312H475.42C476.851 140.312 477.566 139.74 477.566 138.598ZM477.339 135.016C477.339 134.552 477.173 134.223 476.841 134.027C476.509 133.827 476.011 133.727 475.347 133.727H472.725V136.452H475.259C476.001 136.452 476.534 136.337 476.856 136.107C477.178 135.878 477.339 135.514 477.339 135.016ZM493.889 143.703H493.171V141H487.078V143.703H486.36V140.312H486.887C487.551 139.379 488.064 138.297 488.425 137.067C488.787 135.836 488.977 134.494 488.997 133.039H492.827V140.312H493.889V143.703ZM492.102 140.312V133.712H489.626C489.509 136.354 488.87 138.554 487.708 140.312H492.102ZM503.666 137.008C503.666 138.307 503.351 139.323 502.721 140.055C502.091 140.783 501.222 141.146 500.113 141.146C499.415 141.146 498.8 140.978 498.268 140.641C497.735 140.304 497.328 139.821 497.044 139.191C496.761 138.561 496.62 137.833 496.62 137.008C496.62 135.709 496.935 134.699 497.564 133.976C498.194 133.249 499.059 132.885 500.157 132.885C501.251 132.885 502.108 133.253 502.728 133.991C503.353 134.723 503.666 135.729 503.666 137.008ZM497.381 137.008C497.381 138.102 497.621 138.957 498.099 139.572C498.583 140.182 499.264 140.487 500.143 140.487C501.021 140.487 501.7 140.182 502.179 139.572C502.662 138.957 502.904 138.102 502.904 137.008C502.904 135.91 502.66 135.058 502.171 134.452C501.688 133.847 501.007 133.544 500.128 133.544C499.249 133.544 498.57 133.847 498.092 134.452C497.618 135.053 497.381 135.905 497.381 137.008ZM512.878 141H512.16V133.712H509.34C509.194 135.641 509.013 137.113 508.798 138.129C508.588 139.14 508.315 139.884 507.978 140.363C507.646 140.836 507.214 141.073 506.682 141.073C506.491 141.073 506.325 141.054 506.184 141.015V140.355C506.276 140.385 506.408 140.399 506.579 140.399C507.131 140.399 507.575 139.818 507.912 138.656C508.254 137.489 508.513 135.617 508.688 133.039H512.878V141ZM521.724 133.668H517.769V141H517.044V133.039H521.724V133.668ZM531.442 137.008C531.442 138.307 531.127 139.323 530.497 140.055C529.867 140.783 528.998 141.146 527.89 141.146C527.191 141.146 526.576 140.978 526.044 140.641C525.512 140.304 525.104 139.821 524.821 139.191C524.538 138.561 524.396 137.833 524.396 137.008C524.396 135.709 524.711 134.699 525.341 133.976C525.971 133.249 526.835 132.885 527.934 132.885C529.027 132.885 529.884 133.253 530.504 133.991C531.129 134.723 531.442 135.729 531.442 137.008ZM525.158 137.008C525.158 138.102 525.397 138.957 525.875 139.572C526.359 140.182 527.04 140.487 527.919 140.487C528.798 140.487 529.477 140.182 529.955 139.572C530.438 138.957 530.68 138.102 530.68 137.008C530.68 135.91 530.436 135.058 529.948 134.452C529.464 133.847 528.783 133.544 527.904 133.544C527.025 133.544 526.347 133.847 525.868 134.452C525.395 135.053 525.158 135.905 525.158 137.008ZM541.255 134.958C541.255 135.46 541.13 135.856 540.881 136.144C540.632 136.427 540.227 136.625 539.666 136.737V136.789C540.305 136.862 540.767 137.047 541.05 137.345C541.338 137.638 541.482 138.061 541.482 138.612C541.482 139.379 541.228 139.97 540.72 140.385C540.217 140.795 539.48 141 538.508 141H535.146V133.039H538.523C539.431 133.039 540.112 133.202 540.566 133.529C541.025 133.856 541.255 134.333 541.255 134.958ZM540.713 138.598C540.713 137.621 539.963 137.133 538.464 137.133H535.872V140.312H538.567C539.998 140.312 540.713 139.74 540.713 138.598ZM540.486 135.016C540.486 134.552 540.32 134.223 539.988 134.027C539.656 133.827 539.158 133.727 538.494 133.727H535.872V136.452H538.406C539.148 136.452 539.68 136.337 540.002 136.107C540.325 135.878 540.486 135.514 540.486 135.016ZM543.81 133.039H544.557L546.241 137.506C546.754 138.878 547.079 139.804 547.215 140.282H547.259C547.464 139.652 547.799 138.712 548.263 137.462L549.947 133.039H550.694L547.127 142.289C546.839 143.041 546.598 143.549 546.402 143.812C546.207 144.076 545.978 144.274 545.714 144.406C545.455 144.538 545.14 144.604 544.769 144.604C544.491 144.604 544.181 144.552 543.839 144.45V143.82C544.122 143.898 544.427 143.937 544.754 143.937C545.003 143.937 545.223 143.878 545.414 143.761C545.604 143.644 545.775 143.461 545.926 143.212C546.083 142.968 546.261 142.577 546.461 142.04C546.666 141.508 546.798 141.161 546.856 141L543.81 133.039ZM563.298 137.008C563.298 138.307 563.005 139.323 562.419 140.055C561.838 140.783 561.04 141.146 560.024 141.146C559.067 141.146 558.295 140.788 557.709 140.07C557.128 139.352 556.831 138.383 556.816 137.162H554.252V141H553.527V133.039H554.252V136.532H556.831C556.899 135.385 557.216 134.491 557.783 133.852C558.354 133.207 559.116 132.885 560.068 132.885C561.064 132.885 561.85 133.253 562.426 133.991C563.007 134.723 563.298 135.729 563.298 137.008ZM557.578 137.008C557.578 138.102 557.792 138.957 558.222 139.572C558.657 140.182 559.267 140.487 560.053 140.487C560.839 140.487 561.447 140.18 561.877 139.564C562.312 138.949 562.529 138.097 562.529 137.008C562.529 135.915 562.312 135.065 561.877 134.459C561.442 133.849 560.83 133.544 560.039 133.544C559.252 133.544 558.645 133.847 558.215 134.452C557.79 135.053 557.578 135.905 557.578 137.008ZM572.274 141H571.359L573.761 137.565C573.029 137.428 572.499 137.174 572.172 136.803C571.85 136.432 571.688 135.956 571.688 135.375C571.688 134.652 571.93 134.083 572.414 133.668C572.902 133.249 573.556 133.039 574.376 133.039H577.658V141H576.94V137.653H574.508L572.274 141ZM572.45 135.346C572.45 135.893 572.626 136.3 572.978 136.569C573.334 136.833 573.869 136.964 574.582 136.964H576.94V133.727H574.362C573.756 133.727 573.285 133.866 572.948 134.145C572.616 134.418 572.45 134.818 572.45 135.346ZM585.537 140.224L585.991 138.942L588.284 133.039H589.287V141H588.599V133.917C588.491 134.225 588.376 134.54 588.254 134.862C588.137 135.185 587.341 137.23 585.867 141H585.222L583.018 135.404C582.925 135.18 582.837 134.943 582.754 134.694C582.676 134.445 582.588 134.176 582.49 133.888V141H581.831V133.039H582.791L585.09 138.898C585.271 139.372 585.42 139.813 585.537 140.224ZM592.12 133.039H592.867L594.552 137.506C595.064 138.878 595.389 139.804 595.526 140.282H595.57C595.775 139.652 596.109 138.712 596.573 137.462L598.258 133.039H599.005L595.438 142.289C595.15 143.041 594.908 143.549 594.713 143.812C594.518 144.076 594.288 144.274 594.024 144.406C593.766 144.538 593.451 144.604 593.08 144.604C592.801 144.604 592.491 144.552 592.149 144.45V143.82C592.433 143.898 592.738 143.937 593.065 143.937C593.314 143.937 593.534 143.878 593.724 143.761C593.915 143.644 594.085 143.461 594.237 143.212C594.393 142.968 594.571 142.577 594.771 142.04C594.977 141.508 595.108 141.161 595.167 141L592.12 133.039ZM610.413 141.146C609.275 141.146 608.384 140.788 607.74 140.07C607.095 139.352 606.773 138.351 606.773 137.067C606.773 135.749 607.107 134.723 607.776 133.991C608.445 133.253 609.361 132.885 610.523 132.885C611.211 132.885 611.871 133.004 612.5 133.244L612.303 133.888C611.614 133.659 611.016 133.544 610.508 133.544C609.532 133.544 608.792 133.847 608.289 134.452C607.786 135.053 607.535 135.919 607.535 137.052C607.535 138.126 607.786 138.969 608.289 139.579C608.792 140.185 609.495 140.487 610.398 140.487C611.121 140.487 611.792 140.358 612.413 140.099V140.773C611.905 141.022 611.238 141.146 610.413 141.146ZM620.922 133.668H618.271V141H617.553V133.668H614.835V133.039H620.922V133.668ZM628.896 141L628.713 139.74H628.655C628.254 140.253 627.842 140.617 627.417 140.832C626.997 141.042 626.499 141.146 625.923 141.146C625.142 141.146 624.534 140.946 624.099 140.546C623.665 140.146 623.447 139.591 623.447 138.883C623.447 138.107 623.77 137.504 624.414 137.074C625.063 136.645 626.001 136.417 627.227 136.393L628.743 136.349V135.822C628.743 135.065 628.589 134.494 628.281 134.108C627.974 133.722 627.478 133.529 626.794 133.529C626.057 133.529 625.293 133.734 624.502 134.145L624.231 133.515C625.105 133.104 625.969 132.899 626.824 132.899C627.698 132.899 628.35 133.126 628.779 133.581C629.214 134.035 629.431 134.743 629.431 135.705V141H628.896ZM625.967 140.487C626.816 140.487 627.485 140.246 627.974 139.762C628.467 139.274 628.713 138.598 628.713 137.733V136.95L627.322 137.008C626.204 137.062 625.405 137.238 624.927 137.536C624.453 137.829 624.216 138.288 624.216 138.913C624.216 139.411 624.368 139.799 624.67 140.077C624.978 140.351 625.41 140.487 625.967 140.487ZM639.024 141H638.307V133.712H635.487C635.34 135.641 635.16 137.113 634.945 138.129C634.735 139.14 634.461 139.884 634.125 140.363C633.792 140.836 633.36 141.073 632.828 141.073C632.638 141.073 632.472 141.054 632.33 141.015V140.355C632.423 140.385 632.555 140.399 632.726 140.399C633.277 140.399 633.722 139.818 634.059 138.656C634.4 137.489 634.659 135.617 634.835 133.039H639.024V141ZM649.775 137.008C649.775 138.307 649.46 139.323 648.83 140.055C648.2 140.783 647.331 141.146 646.223 141.146C645.524 141.146 644.909 140.978 644.377 140.641C643.845 140.304 643.437 139.821 643.154 139.191C642.871 138.561 642.729 137.833 642.729 137.008C642.729 135.709 643.044 134.699 643.674 133.976C644.304 133.249 645.168 132.885 646.267 132.885C647.36 132.885 648.217 133.253 648.837 133.991C649.462 134.723 649.775 135.729 649.775 137.008ZM643.491 137.008C643.491 138.102 643.73 138.957 644.208 139.572C644.692 140.182 645.373 140.487 646.252 140.487C647.131 140.487 647.81 140.182 648.288 139.572C648.771 138.957 649.013 138.102 649.013 137.008C649.013 135.91 648.769 135.058 648.281 134.452C647.797 133.847 647.116 133.544 646.237 133.544C645.358 133.544 644.68 133.847 644.201 134.452C643.728 135.053 643.491 135.905 643.491 137.008ZM659.601 141H658.876V133.039H665.226V141H664.501V133.727H659.601V141ZM672.805 141.146C671.58 141.146 670.686 140.688 670.125 139.77H670.073L670.095 140.385C670.115 140.746 670.125 141.142 670.125 141.571V144.604H669.399V133.039H670.015L670.154 134.174H670.198C670.745 133.314 671.619 132.885 672.82 132.885C673.894 132.885 674.712 133.239 675.273 133.947C675.84 134.65 676.123 135.675 676.123 137.023C676.123 138.332 675.825 139.347 675.229 140.07C674.639 140.788 673.831 141.146 672.805 141.146ZM672.791 140.502C673.606 140.502 674.236 140.199 674.68 139.594C675.129 138.988 675.354 138.141 675.354 137.052C675.354 134.713 674.509 133.544 672.82 133.544C671.892 133.544 671.211 133.8 670.776 134.313C670.342 134.821 670.125 135.651 670.125 136.803V137.038C670.125 138.283 670.332 139.171 670.747 139.704C671.167 140.236 671.848 140.502 672.791 140.502ZM686.419 137.008C686.419 138.307 686.104 139.323 685.475 140.055C684.845 140.783 683.976 141.146 682.867 141.146C682.169 141.146 681.554 140.978 681.021 140.641C680.489 140.304 680.082 139.821 679.798 139.191C679.515 138.561 679.374 137.833 679.374 137.008C679.374 135.709 679.688 134.699 680.318 133.976C680.948 133.249 681.812 132.885 682.911 132.885C684.005 132.885 684.862 133.253 685.482 133.991C686.107 134.723 686.419 135.729 686.419 137.008ZM680.135 137.008C680.135 138.102 680.375 138.957 680.853 139.572C681.336 140.182 682.018 140.487 682.896 140.487C683.775 140.487 684.454 140.182 684.933 139.572C685.416 138.957 685.658 138.102 685.658 137.008C685.658 135.91 685.414 135.058 684.925 134.452C684.442 133.847 683.761 133.544 682.882 133.544C682.003 133.544 681.324 133.847 680.846 134.452C680.372 135.053 680.135 135.905 680.135 137.008ZM695.544 140.312H699.514V133.039H700.239V140.312H701.301V143.703H700.583V141H690.124V133.039H690.849V140.312H694.819V133.039H695.544V140.312ZM707.715 141.146C706.558 141.146 705.655 140.79 705.005 140.077C704.361 139.364 704.039 138.366 704.039 137.082C704.039 135.812 704.351 134.796 704.976 134.035C705.601 133.268 706.443 132.885 707.503 132.885C708.44 132.885 709.18 133.212 709.722 133.866C710.264 134.521 710.535 135.409 710.535 136.532V137.118H704.8C704.81 138.212 705.064 139.047 705.562 139.623C706.065 140.199 706.783 140.487 707.715 140.487C708.169 140.487 708.567 140.456 708.909 140.392C709.256 140.329 709.693 140.192 710.22 139.982V140.641C709.771 140.836 709.356 140.968 708.975 141.037C708.594 141.11 708.174 141.146 707.715 141.146ZM707.503 133.529C706.736 133.529 706.121 133.783 705.657 134.291C705.193 134.794 704.922 135.521 704.844 136.474H709.766C709.766 135.551 709.566 134.831 709.166 134.313C708.765 133.791 708.211 133.529 707.503 133.529ZM714.921 138.239H714.474L714.262 130.292H715.133L714.921 138.239ZM714.101 140.429C714.101 139.95 714.296 139.711 714.687 139.711C715.087 139.711 715.287 139.95 715.287 140.429C715.287 140.907 715.087 141.146 714.687 141.146C714.296 141.146 714.101 140.907 714.101 140.429ZM731.976 141H730.958L725.663 135.543V141H724.916V130.292H725.663V135.478L730.812 130.292H731.8L726.622 135.478L731.976 141ZM738.222 141.146C736.997 141.146 736.103 140.688 735.542 139.77H735.49L735.512 140.385C735.532 140.746 735.542 141.142 735.542 141.571V144.604H734.816V133.039H735.432L735.571 134.174H735.615C736.162 133.314 737.036 132.885 738.237 132.885C739.311 132.885 740.129 133.239 740.69 133.947C741.257 134.65 741.54 135.675 741.54 137.023C741.54 138.332 741.242 139.347 740.646 140.07C740.056 140.788 739.248 141.146 738.222 141.146ZM738.208 140.502C739.023 140.502 739.653 140.199 740.097 139.594C740.546 138.988 740.771 138.141 740.771 137.052C740.771 134.713 739.926 133.544 738.237 133.544C737.309 133.544 736.628 133.8 736.193 134.313C735.759 134.821 735.542 135.651 735.542 136.803V137.038C735.542 138.283 735.749 139.171 736.164 139.704C736.584 140.236 737.265 140.502 738.208 140.502ZM748.467 141.146C747.31 141.146 746.407 140.79 745.757 140.077C745.113 139.364 744.791 138.366 744.791 137.082C744.791 135.812 745.103 134.796 745.728 134.035C746.353 133.268 747.195 132.885 748.255 132.885C749.192 132.885 749.932 133.212 750.474 133.866C751.016 134.521 751.287 135.409 751.287 136.532V137.118H745.552C745.562 138.212 745.816 139.047 746.314 139.623C746.817 140.199 747.535 140.487 748.467 140.487C748.921 140.487 749.319 140.456 749.661 140.392C750.008 140.329 750.445 140.192 750.972 139.982V140.641C750.523 140.836 750.108 140.968 749.727 141.037C749.346 141.11 748.926 141.146 748.467 141.146ZM748.255 133.529C747.488 133.529 746.873 133.783 746.409 134.291C745.945 134.794 745.674 135.521 745.596 136.474H750.518C750.518 135.551 750.318 134.831 749.917 134.313C749.517 133.791 748.963 133.529 748.255 133.529ZM761.481 143.703H760.763V141H754.669V143.703H753.952V140.312H754.479C755.143 139.379 755.656 138.297 756.017 137.067C756.378 135.836 756.569 134.494 756.588 133.039H760.419V140.312H761.481V143.703ZM759.694 140.312V133.712H757.218C757.101 136.354 756.461 138.554 755.299 140.312H759.694ZM765.361 133.039V138.795L765.317 140.297L770.042 133.039H771.008V141H770.312V135.28L770.342 133.742L765.618 141H764.673V133.039H765.361ZM780.235 133.668H777.584V141H776.866V133.668H774.149V133.039H780.235V133.668ZM784.101 133.039V136.532H789.155V133.039H789.873V141H789.155V137.162H784.101V141H783.376V133.039H784.101ZM794.771 136.393H797.305C799.175 136.393 800.11 137.128 800.11 138.598C800.11 139.354 799.849 139.945 799.327 140.37C798.804 140.79 798.055 141 797.078 141H794.046V133.039H794.771V136.393ZM794.771 137.082V140.312H797.195C797.884 140.312 798.414 140.167 798.785 139.879C799.156 139.591 799.341 139.159 799.341 138.583C799.341 138.056 799.178 137.675 798.851 137.44C798.523 137.201 797.957 137.082 797.151 137.082H794.771ZM802.22 141H801.502V133.039H802.22V141ZM809.616 141.146C808.458 141.146 807.555 140.79 806.906 140.077C806.261 139.364 805.939 138.366 805.939 137.082C805.939 135.812 806.251 134.796 806.876 134.035C807.501 133.268 808.344 132.885 809.403 132.885C810.341 132.885 811.081 133.212 811.623 133.866C812.165 134.521 812.436 135.409 812.436 136.532V137.118H806.701C806.71 138.212 806.964 139.047 807.462 139.623C807.965 140.199 808.683 140.487 809.616 140.487C810.07 140.487 810.468 140.456 810.81 140.392C811.156 140.329 811.593 140.192 812.121 139.982V140.641C811.671 140.836 811.256 140.968 810.875 141.037C810.495 141.11 810.075 141.146 809.616 141.146ZM809.403 133.529C808.637 133.529 808.021 133.783 807.558 134.291C807.094 134.794 806.823 135.521 806.745 136.474H811.667C811.667 135.551 811.466 134.831 811.066 134.313C810.666 133.791 810.111 133.529 809.403 133.529ZM825.851 133.039H826.751L823.185 136.891L827.008 141H826.034L822.269 136.964V141H821.529V133.039H822.269V136.906L825.851 133.039ZM836.499 137.008C836.499 138.307 836.184 139.323 835.554 140.055C834.924 140.783 834.055 141.146 832.946 141.146C832.248 141.146 831.633 140.978 831.101 140.641C830.568 140.304 830.161 139.821 829.877 139.191C829.594 138.561 829.453 137.833 829.453 137.008C829.453 135.709 829.768 134.699 830.397 133.976C831.027 133.249 831.892 132.885 832.99 132.885C834.084 132.885 834.941 133.253 835.561 133.991C836.186 134.723 836.499 135.729 836.499 137.008ZM830.214 137.008C830.214 138.102 830.454 138.957 830.932 139.572C831.416 140.182 832.097 140.487 832.976 140.487C833.854 140.487 834.533 140.182 835.012 139.572C835.495 138.957 835.737 138.102 835.737 137.008C835.737 135.91 835.493 135.058 835.004 134.452C834.521 133.847 833.84 133.544 832.961 133.544C832.082 133.544 831.403 133.847 830.925 134.452C830.451 135.053 830.214 135.905 830.214 137.008ZM840.928 133.039V136.532H845.982V133.039H846.7V141H845.982V137.162H840.928V141H840.203V133.039H840.928ZM854.052 141.146C852.914 141.146 852.023 140.788 851.378 140.07C850.734 139.352 850.412 138.351 850.412 137.067C850.412 135.749 850.746 134.723 851.415 133.991C852.084 133.253 853 132.885 854.162 132.885C854.85 132.885 855.509 133.004 856.139 133.244L855.941 133.888C855.253 133.659 854.655 133.544 854.147 133.544C853.17 133.544 852.431 133.847 851.928 134.452C851.425 135.053 851.173 135.919 851.173 137.052C851.173 138.126 851.425 138.969 851.928 139.579C852.431 140.185 853.134 140.487 854.037 140.487C854.76 140.487 855.431 140.358 856.051 140.099V140.773C855.543 141.022 854.877 141.146 854.052 141.146ZM858.174 133.039H858.921L860.605 137.506C861.118 138.878 861.443 139.804 861.58 140.282H861.624C861.829 139.652 862.163 138.712 862.627 137.462L864.312 133.039H865.059L861.492 142.289C861.204 143.041 860.962 143.549 860.767 143.812C860.571 144.076 860.342 144.274 860.078 144.406C859.819 144.538 859.504 144.604 859.133 144.604C858.855 144.604 858.545 144.552 858.203 144.45V143.82C858.486 143.898 858.792 143.937 859.119 143.937C859.368 143.937 859.587 143.878 859.778 143.761C859.968 143.644 860.139 143.461 860.291 143.212C860.447 142.968 860.625 142.577 860.825 142.04C861.03 141.508 861.162 141.161 861.221 141L858.174 133.039ZM873.399 141H872.682V133.712H869.862C869.715 135.641 869.535 137.113 869.32 138.129C869.11 139.14 868.836 139.884 868.5 140.363C868.167 140.836 867.735 141.073 867.203 141.073C867.013 141.073 866.847 141.054 866.705 141.015V140.355C866.798 140.385 866.93 140.399 867.101 140.399C867.652 140.399 868.097 139.818 868.434 138.656C868.775 137.489 869.034 135.617 869.21 133.039H873.399V141ZM878.291 136.393H881.096C882.966 136.393 883.901 137.128 883.901 138.598C883.901 139.354 883.64 139.945 883.117 140.37C882.595 140.79 881.845 141 880.869 141H877.565V133.039H878.291V136.393ZM878.291 137.082V140.312H880.986C881.679 140.312 882.209 140.165 882.575 139.872C882.946 139.579 883.132 139.149 883.132 138.583C883.132 138.056 882.968 137.675 882.641 137.44C882.314 137.201 881.748 137.082 880.942 137.082H878.291ZM892.659 133.668H890.008V141H889.29V133.668H886.573V133.039H892.659V133.668ZM900.634 141L900.451 139.74H900.392C899.992 140.253 899.579 140.617 899.154 140.832C898.734 141.042 898.236 141.146 897.66 141.146C896.879 141.146 896.271 140.946 895.836 140.546C895.402 140.146 895.185 139.591 895.185 138.883C895.185 138.107 895.507 137.504 896.151 137.074C896.801 136.645 897.738 136.417 898.964 136.393L900.48 136.349V135.822C900.48 135.065 900.326 134.494 900.019 134.108C899.711 133.722 899.215 133.529 898.532 133.529C897.794 133.529 897.03 133.734 896.239 134.145L895.968 133.515C896.842 133.104 897.707 132.899 898.561 132.899C899.435 132.899 900.087 133.126 900.517 133.581C900.951 134.035 901.168 134.743 901.168 135.705V141H900.634ZM897.704 140.487C898.554 140.487 899.223 140.246 899.711 139.762C900.204 139.274 900.451 138.598 900.451 137.733V136.95L899.059 137.008C897.941 137.062 897.143 137.238 896.664 137.536C896.19 137.829 895.954 138.288 895.954 138.913C895.954 139.411 896.105 139.799 896.408 140.077C896.715 140.351 897.147 140.487 897.704 140.487ZM905.979 133.039V136.532H911.033V133.039H911.75V141H911.033V137.162H905.979V141H905.254V133.039H905.979ZM920.978 133.668H918.326V141H917.608V133.668H914.891V133.039H920.978V133.668ZM924.843 136.393H927.377C929.248 136.393 930.183 137.128 930.183 138.598C930.183 139.354 929.921 139.945 929.399 140.37C928.876 140.79 928.127 141 927.15 141H924.118V133.039H924.843V136.393ZM924.843 137.082V140.312H927.268C927.956 140.312 928.486 140.167 928.857 139.879C929.228 139.591 929.414 139.159 929.414 138.583C929.414 138.056 929.25 137.675 928.923 137.44C928.596 137.201 928.029 137.082 927.224 137.082H924.843ZM932.292 141H931.574V133.039H932.292V141ZM402.058 169H401.333V161.039H407.683V169H406.958V161.727H402.058V169ZM418.441 165.008C418.441 166.307 418.126 167.323 417.496 168.055C416.866 168.783 415.997 169.146 414.889 169.146C414.19 169.146 413.575 168.978 413.043 168.641C412.511 168.304 412.103 167.821 411.82 167.191C411.537 166.561 411.395 165.833 411.395 165.008C411.395 163.709 411.71 162.699 412.34 161.976C412.97 161.249 413.834 160.885 414.933 160.885C416.026 160.885 416.883 161.253 417.503 161.991C418.128 162.723 418.441 163.729 418.441 165.008ZM412.157 165.008C412.157 166.102 412.396 166.957 412.875 167.572C413.358 168.182 414.039 168.487 414.918 168.487C415.797 168.487 416.476 168.182 416.954 167.572C417.438 166.957 417.679 166.102 417.679 165.008C417.679 163.91 417.435 163.058 416.947 162.452C416.463 161.847 415.782 161.544 414.903 161.544C414.024 161.544 413.346 161.847 412.867 162.452C412.394 163.053 412.157 163.905 412.157 165.008ZM428.642 171.703H427.924V169H421.831V171.703H421.113V168.312H421.64C422.304 167.379 422.817 166.297 423.178 165.067C423.54 163.836 423.73 162.494 423.75 161.039H427.58V168.312H428.642V171.703ZM426.855 168.312V161.712H424.379C424.262 164.354 423.623 166.554 422.46 168.312H426.855ZM431.402 164.217C431.402 160.76 432.376 158.79 434.324 158.307C435.008 158.136 435.662 157.992 436.287 157.875C436.917 157.752 437.474 157.645 437.957 157.552L438.089 158.182L437.21 158.351C435.76 158.624 434.803 158.834 434.339 158.98C433.68 159.171 433.162 159.627 432.786 160.35C432.415 161.073 432.203 162.062 432.149 163.316H432.193C432.715 162.696 433.223 162.254 433.716 161.991C434.209 161.722 434.717 161.588 435.24 161.588C436.216 161.588 436.963 161.903 437.481 162.533C437.999 163.163 438.257 164.059 438.257 165.221C438.257 166.456 437.959 167.42 437.364 168.114C436.768 168.802 435.931 169.146 434.852 169.146C433.758 169.146 432.908 168.719 432.303 167.865C431.702 167.01 431.402 165.794 431.402 164.217ZM434.91 168.487C435.745 168.487 436.382 168.209 436.822 167.652C437.266 167.096 437.488 166.295 437.488 165.25C437.488 164.259 437.291 163.512 436.895 163.009C436.504 162.501 435.928 162.247 435.167 162.247C434.6 162.247 434.051 162.425 433.519 162.782C432.991 163.133 432.53 163.622 432.134 164.247C432.134 165.121 432.242 165.887 432.457 166.546C432.676 167.206 432.994 167.694 433.409 168.011C433.824 168.329 434.324 168.487 434.91 168.487ZM445.163 169.146C444.005 169.146 443.102 168.79 442.453 168.077C441.808 167.364 441.486 166.366 441.486 165.082C441.486 163.812 441.798 162.796 442.423 162.035C443.048 161.268 443.891 160.885 444.95 160.885C445.888 160.885 446.627 161.212 447.169 161.866C447.711 162.521 447.982 163.409 447.982 164.532V165.118H442.248C442.257 166.212 442.511 167.047 443.009 167.623C443.512 168.199 444.23 168.487 445.163 168.487C445.617 168.487 446.015 168.456 446.356 168.392C446.703 168.329 447.14 168.192 447.667 167.982V168.641C447.218 168.836 446.803 168.968 446.422 169.037C446.042 169.11 445.622 169.146 445.163 169.146ZM444.95 161.529C444.184 161.529 443.568 161.783 443.104 162.291C442.641 162.794 442.37 163.521 442.292 164.474H447.213C447.213 163.551 447.013 162.831 446.613 162.313C446.212 161.791 445.658 161.529 444.95 161.529ZM455.085 169.146C453.86 169.146 452.966 168.688 452.405 167.77H452.354L452.375 168.385C452.395 168.746 452.405 169.142 452.405 169.571V172.604H451.68V161.039H452.295L452.434 162.174H452.478C453.025 161.314 453.899 160.885 455.1 160.885C456.174 160.885 456.992 161.239 457.554 161.947C458.12 162.65 458.403 163.675 458.403 165.023C458.403 166.332 458.105 167.347 457.51 168.07C456.919 168.788 456.111 169.146 455.085 169.146ZM455.071 168.502C455.886 168.502 456.516 168.199 456.96 167.594C457.41 166.988 457.634 166.141 457.634 165.052C457.634 162.713 456.79 161.544 455.1 161.544C454.172 161.544 453.491 161.8 453.057 162.313C452.622 162.821 452.405 163.651 452.405 164.803V165.038C452.405 166.283 452.612 167.171 453.027 167.704C453.447 168.236 454.128 168.502 455.071 168.502ZM460.782 161.039H461.529L463.214 165.506C463.727 166.878 464.051 167.804 464.188 168.282H464.232C464.437 167.652 464.771 166.712 465.235 165.462L466.92 161.039H467.667L464.1 170.289C463.812 171.041 463.57 171.549 463.375 171.812C463.18 172.076 462.95 172.274 462.687 172.406C462.428 172.538 462.113 172.604 461.742 172.604C461.463 172.604 461.153 172.552 460.812 172.45V171.82C461.095 171.898 461.4 171.937 461.727 171.937C461.976 171.937 462.196 171.878 462.386 171.761C462.577 171.644 462.748 171.461 462.899 171.212C463.055 170.968 463.233 170.577 463.434 170.04C463.639 169.508 463.771 169.161 463.829 169L460.782 161.039ZM475.554 161.668H472.902V169H472.185V161.668H469.467V161.039H475.554V161.668ZM490.587 171.703H489.87V169H483.776V171.703H483.058V168.312H483.585C484.25 167.379 484.762 166.297 485.124 165.067C485.485 163.836 485.675 162.494 485.695 161.039H489.525V168.312H490.587V171.703ZM488.8 168.312V161.712H486.325C486.208 164.354 485.568 166.554 484.406 168.312H488.8ZM499.287 169H498.569V161.712H495.75C495.603 163.641 495.422 165.113 495.208 166.129C494.998 167.14 494.724 167.884 494.387 168.363C494.055 168.836 493.623 169.073 493.091 169.073C492.9 169.073 492.734 169.054 492.593 169.015V168.355C492.686 168.385 492.817 168.399 492.988 168.399C493.54 168.399 493.984 167.818 494.321 166.656C494.663 165.489 494.922 163.617 495.098 161.039H499.287V169ZM503.336 169H502.42L504.823 165.565C504.09 165.428 503.561 165.174 503.233 164.803C502.911 164.432 502.75 163.956 502.75 163.375C502.75 162.652 502.992 162.083 503.475 161.668C503.963 161.249 504.618 161.039 505.438 161.039H508.719V169H508.001V165.653H505.57L503.336 169ZM503.512 163.346C503.512 163.893 503.688 164.3 504.039 164.569C504.396 164.833 504.93 164.964 505.643 164.964H508.001V161.727H505.423C504.818 161.727 504.347 161.866 504.01 162.145C503.678 162.418 503.512 162.818 503.512 163.346ZM524.397 162.958C524.397 163.46 524.273 163.856 524.024 164.144C523.775 164.427 523.37 164.625 522.808 164.737V164.789C523.448 164.862 523.909 165.047 524.192 165.345C524.48 165.638 524.625 166.061 524.625 166.612C524.625 167.379 524.371 167.97 523.863 168.385C523.36 168.795 522.623 169 521.651 169H518.289V161.039H521.666C522.574 161.039 523.255 161.202 523.709 161.529C524.168 161.856 524.397 162.333 524.397 162.958ZM523.855 166.598C523.855 165.621 523.106 165.133 521.607 165.133H519.014V168.312H521.709C523.14 168.312 523.855 167.74 523.855 166.598ZM523.628 163.016C523.628 162.552 523.462 162.223 523.13 162.027C522.798 161.827 522.3 161.727 521.636 161.727H519.014V164.452H521.548C522.291 164.452 522.823 164.337 523.145 164.107C523.467 163.878 523.628 163.514 523.628 163.016ZM533.119 169L532.936 167.74H532.877C532.477 168.253 532.064 168.617 531.64 168.832C531.22 169.042 530.722 169.146 530.146 169.146C529.364 169.146 528.756 168.946 528.322 168.546C527.887 168.146 527.67 167.591 527.67 166.883C527.67 166.107 527.992 165.504 528.637 165.074C529.286 164.645 530.224 164.417 531.449 164.393L532.965 164.349V163.822C532.965 163.065 532.812 162.494 532.504 162.108C532.196 161.722 531.701 161.529 531.017 161.529C530.28 161.529 529.516 161.734 528.725 162.145L528.454 161.515C529.328 161.104 530.192 160.899 531.046 160.899C531.92 160.899 532.572 161.126 533.002 161.581C533.437 162.035 533.654 162.743 533.654 163.705V169H533.119ZM530.189 168.487C531.039 168.487 531.708 168.246 532.196 167.762C532.689 167.274 532.936 166.598 532.936 165.733V164.95L531.544 165.008C530.426 165.062 529.628 165.238 529.149 165.536C528.676 165.829 528.439 166.288 528.439 166.913C528.439 167.411 528.59 167.799 528.893 168.077C529.201 168.351 529.633 168.487 530.189 168.487ZM540.918 169.146C539.78 169.146 538.889 168.788 538.245 168.07C537.6 167.352 537.278 166.351 537.278 165.067C537.278 163.749 537.612 162.723 538.281 161.991C538.95 161.253 539.866 160.885 541.028 160.885C541.716 160.885 542.375 161.004 543.005 161.244L542.808 161.888C542.119 161.659 541.521 161.544 541.013 161.544C540.037 161.544 539.297 161.847 538.794 162.452C538.291 163.053 538.04 163.919 538.04 165.052C538.04 166.126 538.291 166.969 538.794 167.579C539.297 168.185 540 168.487 540.903 168.487C541.626 168.487 542.297 168.358 542.917 168.099V168.773C542.41 169.022 541.743 169.146 540.918 169.146ZM552.495 161.039V164.532H557.548V161.039H558.266V169H557.548V165.162H552.495V169H551.77V161.039H552.495ZM567.273 169L567.09 167.74H567.032C566.631 168.253 566.219 168.617 565.794 168.832C565.374 169.042 564.876 169.146 564.3 169.146C563.519 169.146 562.911 168.946 562.476 168.546C562.042 168.146 561.824 167.591 561.824 166.883C561.824 166.107 562.146 165.504 562.791 165.074C563.44 164.645 564.378 164.417 565.604 164.393L567.12 164.349V163.822C567.12 163.065 566.966 162.494 566.658 162.108C566.351 161.722 565.855 161.529 565.171 161.529C564.434 161.529 563.67 161.734 562.879 162.145L562.608 161.515C563.482 161.104 564.346 160.899 565.201 160.899C566.075 160.899 566.727 161.126 567.156 161.581C567.591 162.035 567.808 162.743 567.808 163.705V169H567.273ZM564.344 168.487C565.193 168.487 565.862 168.246 566.351 167.762C566.844 167.274 567.09 166.598 567.09 165.733V164.95L565.699 165.008C564.581 165.062 563.782 165.238 563.304 165.536C562.83 165.829 562.593 166.288 562.593 166.913C562.593 167.411 562.745 167.799 563.047 168.077C563.355 168.351 563.787 168.487 564.344 168.487ZM572.582 161.039V166.795L572.538 168.297L577.262 161.039H578.229V169H577.533V163.28L577.562 161.742L572.838 169H571.894V161.039H572.582ZM581.97 164.217C581.97 160.76 582.944 158.79 584.893 158.307C585.576 158.136 586.23 157.992 586.855 157.875C587.485 157.752 588.042 157.645 588.525 157.552L588.657 158.182L587.778 158.351C586.328 158.624 585.371 158.834 584.907 158.98C584.248 159.171 583.73 159.627 583.354 160.35C582.983 161.073 582.771 162.062 582.717 163.316H582.761C583.284 162.696 583.792 162.254 584.285 161.991C584.778 161.722 585.286 161.588 585.808 161.588C586.785 161.588 587.532 161.903 588.049 162.533C588.567 163.163 588.826 164.059 588.826 165.221C588.826 166.456 588.528 167.42 587.932 168.114C587.336 168.802 586.499 169.146 585.42 169.146C584.326 169.146 583.477 168.719 582.871 167.865C582.271 167.01 581.97 165.794 581.97 164.217ZM585.479 168.487C586.313 168.487 586.951 168.209 587.39 167.652C587.834 167.096 588.057 166.295 588.057 165.25C588.057 164.259 587.859 163.512 587.463 163.009C587.073 162.501 586.497 162.247 585.735 162.247C585.168 162.247 584.619 162.425 584.087 162.782C583.56 163.133 583.098 163.622 582.703 164.247C582.703 165.121 582.81 165.887 583.025 166.546C583.245 167.206 583.562 167.694 583.977 168.011C584.392 168.329 584.893 168.487 585.479 168.487ZM599.1 165.008C599.1 166.307 598.785 167.323 598.155 168.055C597.525 168.783 596.656 169.146 595.548 169.146C594.85 169.146 594.234 168.978 593.702 168.641C593.17 168.304 592.762 167.821 592.479 167.191C592.196 166.561 592.054 165.833 592.054 165.008C592.054 163.709 592.369 162.699 592.999 161.976C593.629 161.249 594.493 160.885 595.592 160.885C596.686 160.885 597.542 161.253 598.163 161.991C598.788 162.723 599.1 163.729 599.1 165.008ZM592.816 165.008C592.816 166.102 593.055 166.957 593.534 167.572C594.017 168.182 594.698 168.487 595.577 168.487C596.456 168.487 597.135 168.182 597.613 167.572C598.097 166.957 598.338 166.102 598.338 165.008C598.338 163.91 598.094 163.058 597.606 162.452C597.123 161.847 596.441 161.544 595.562 161.544C594.684 161.544 594.005 161.847 593.526 162.452C593.053 163.053 592.816 163.905 592.816 165.008ZM608.312 169H607.595V161.712H604.775C604.628 163.641 604.448 165.113 604.233 166.129C604.023 167.14 603.75 167.884 603.413 168.363C603.081 168.836 602.648 169.073 602.116 169.073C601.926 169.073 601.76 169.054 601.618 169.015V168.355C601.711 168.385 601.843 168.399 602.014 168.399C602.565 168.399 603.01 167.818 603.347 166.656C603.688 165.489 603.947 163.617 604.123 161.039H608.312V169ZM615.694 169.146C614.537 169.146 613.633 168.79 612.984 168.077C612.339 167.364 612.017 166.366 612.017 165.082C612.017 163.812 612.33 162.796 612.955 162.035C613.58 161.268 614.422 160.885 615.481 160.885C616.419 160.885 617.159 161.212 617.701 161.866C618.243 162.521 618.514 163.409 618.514 164.532V165.118H612.779C612.789 166.212 613.042 167.047 613.541 167.623C614.043 168.199 614.761 168.487 615.694 168.487C616.148 168.487 616.546 168.456 616.888 168.392C617.234 168.329 617.671 168.192 618.199 167.982V168.641C617.75 168.836 617.334 168.968 616.954 169.037C616.573 169.11 616.153 169.146 615.694 169.146ZM615.481 161.529C614.715 161.529 614.1 161.783 613.636 162.291C613.172 162.794 612.901 163.521 612.823 164.474H617.745C617.745 163.551 617.544 162.831 617.144 162.313C616.744 161.791 616.189 161.529 615.481 161.529ZM625.426 169.146C624.269 169.146 623.366 168.79 622.716 168.077C622.072 167.364 621.75 166.366 621.75 165.082C621.75 163.812 622.062 162.796 622.687 162.035C623.312 161.268 624.154 160.885 625.214 160.885C626.151 160.885 626.891 161.212 627.433 161.866C627.975 162.521 628.246 163.409 628.246 164.532V165.118H622.511C622.521 166.212 622.775 167.047 623.273 167.623C623.776 168.199 624.494 168.487 625.426 168.487C625.88 168.487 626.278 168.456 626.62 168.392C626.967 168.329 627.404 168.192 627.931 167.982V168.641C627.482 168.836 627.067 168.968 626.686 169.037C626.305 169.11 625.885 169.146 625.426 169.146ZM625.214 161.529C624.447 161.529 623.832 161.783 623.368 162.291C622.904 162.794 622.633 163.521 622.555 164.474H627.477C627.477 163.551 627.277 162.831 626.876 162.313C626.476 161.791 625.922 161.529 625.214 161.529ZM643.448 162.958C643.448 163.46 643.324 163.856 643.075 164.144C642.826 164.427 642.42 164.625 641.859 164.737V164.789C642.499 164.862 642.96 165.047 643.243 165.345C643.531 165.638 643.675 166.061 643.675 166.612C643.675 167.379 643.421 167.97 642.914 168.385C642.411 168.795 641.673 169 640.702 169H637.34V161.039H640.716C641.625 161.039 642.306 161.202 642.76 161.529C643.219 161.856 643.448 162.333 643.448 162.958ZM642.906 166.598C642.906 165.621 642.157 165.133 640.658 165.133H638.065V168.312H640.76C642.191 168.312 642.906 167.74 642.906 166.598ZM642.679 163.016C642.679 162.552 642.513 162.223 642.181 162.027C641.849 161.827 641.351 161.727 640.687 161.727H638.065V164.452H640.599C641.341 164.452 641.874 164.337 642.196 164.107C642.518 163.878 642.679 163.514 642.679 163.016ZM648.061 164.393H650.595C652.465 164.393 653.4 165.128 653.4 166.598C653.4 167.354 653.139 167.945 652.617 168.37C652.094 168.79 651.345 169 650.368 169H647.336V161.039H648.061V164.393ZM648.061 165.082V168.312H650.485C651.174 168.312 651.704 168.167 652.075 167.879C652.446 167.591 652.631 167.159 652.631 166.583C652.631 166.056 652.468 165.675 652.141 165.44C651.813 165.201 651.247 165.082 650.441 165.082H648.061ZM655.51 169H654.792V161.039H655.51V169ZM664.371 161.668H660.416V169H659.69V161.039H664.371V161.668ZM674.088 165.008C674.088 166.307 673.773 167.323 673.144 168.055C672.514 168.783 671.645 169.146 670.536 169.146C669.838 169.146 669.223 168.978 668.69 168.641C668.158 168.304 667.75 167.821 667.467 167.191C667.184 166.561 667.042 165.833 667.042 165.008C667.042 163.709 667.357 162.699 667.987 161.976C668.617 161.249 669.481 160.885 670.58 160.885C671.674 160.885 672.531 161.253 673.151 161.991C673.776 162.723 674.088 163.729 674.088 165.008ZM667.804 165.008C667.804 166.102 668.043 166.957 668.522 167.572C669.005 168.182 669.687 168.487 670.565 168.487C671.444 168.487 672.123 168.182 672.602 167.572C673.085 166.957 673.327 166.102 673.327 165.008C673.327 163.91 673.083 163.058 672.594 162.452C672.111 161.847 671.43 161.544 670.551 161.544C669.672 161.544 668.993 161.847 668.515 162.452C668.041 163.053 667.804 163.905 667.804 165.008ZM684.29 171.703H683.572V169H677.478V171.703H676.76V168.312H677.288C677.952 167.379 678.464 166.297 678.826 165.067C679.187 163.836 679.377 162.494 679.397 161.039H683.228V168.312H684.29V171.703ZM682.502 168.312V161.712H680.027C679.91 164.354 679.27 166.554 678.108 168.312H682.502ZM688.207 161.039V164.532H693.26V161.039H693.978V169H693.26V165.162H688.207V169H687.481V161.039H688.207ZM698.876 164.393H701.411C703.281 164.393 704.216 165.128 704.216 166.598C704.216 167.354 703.955 167.945 703.432 168.37C702.91 168.79 702.16 169 701.184 169H698.151V161.039H698.876V164.393ZM698.876 165.082V168.312H701.301C701.989 168.312 702.519 168.167 702.89 167.879C703.261 167.591 703.447 167.159 703.447 166.583C703.447 166.056 703.283 165.675 702.956 165.44C702.629 165.201 702.062 165.082 701.257 165.082H698.876ZM706.325 169H705.607V161.039H706.325V169ZM713.721 169.146C712.564 169.146 711.661 168.79 711.011 168.077C710.367 167.364 710.044 166.366 710.044 165.082C710.044 163.812 710.357 162.796 710.982 162.035C711.607 161.268 712.449 160.885 713.509 160.885C714.446 160.885 715.186 161.212 715.728 161.866C716.27 162.521 716.541 163.409 716.541 164.532V165.118H710.806C710.816 166.212 711.07 167.047 711.568 167.623C712.071 168.199 712.789 168.487 713.721 168.487C714.175 168.487 714.573 168.456 714.915 168.392C715.262 168.329 715.699 168.192 716.226 167.982V168.641C715.777 168.836 715.362 168.968 714.981 169.037C714.6 169.11 714.18 169.146 713.721 169.146ZM713.509 161.529C712.742 161.529 712.127 161.783 711.663 162.291C711.199 162.794 710.928 163.521 710.85 164.474H715.772C715.772 163.551 715.572 162.831 715.171 162.313C714.771 161.791 714.217 161.529 713.509 161.529ZM400 189.039H400.747L402.432 193.506C402.944 194.878 403.269 195.804 403.406 196.282H403.45C403.655 195.652 403.989 194.712 404.453 193.462L406.138 189.039H406.885L403.318 198.289C403.03 199.041 402.788 199.549 402.593 199.812C402.397 200.076 402.168 200.274 401.904 200.406C401.646 200.538 401.331 200.604 400.959 200.604C400.681 200.604 400.371 200.552 400.029 200.45V199.82C400.312 199.898 400.618 199.937 400.945 199.937C401.194 199.937 401.414 199.878 401.604 199.761C401.794 199.644 401.965 199.461 402.117 199.212C402.273 198.968 402.451 198.577 402.651 198.04C402.856 197.508 402.988 197.161 403.047 197L400 189.039ZM412.896 197.146C411.759 197.146 410.868 196.788 410.223 196.07C409.579 195.352 409.256 194.351 409.256 193.067C409.256 191.749 409.591 190.723 410.26 189.991C410.929 189.253 411.844 188.885 413.006 188.885C413.695 188.885 414.354 189.004 414.984 189.244L414.786 189.888C414.098 189.659 413.5 189.544 412.992 189.544C412.015 189.544 411.275 189.847 410.772 190.452C410.27 191.053 410.018 191.919 410.018 193.052C410.018 194.126 410.27 194.969 410.772 195.579C411.275 196.185 411.979 196.487 412.882 196.487C413.604 196.487 414.276 196.358 414.896 196.099V196.773C414.388 197.022 413.722 197.146 412.896 197.146ZM423.859 197H423.142V189.712H420.322C420.175 191.641 419.995 193.113 419.78 194.129C419.57 195.14 419.296 195.884 418.959 196.363C418.627 196.836 418.195 197.073 417.663 197.073C417.473 197.073 417.307 197.054 417.165 197.015V196.355C417.258 196.385 417.39 196.399 417.561 196.399C418.112 196.399 418.557 195.818 418.894 194.656C419.235 193.489 419.494 191.617 419.67 189.039H423.859V197ZM434.61 193.008C434.61 194.307 434.295 195.323 433.665 196.055C433.035 196.783 432.166 197.146 431.058 197.146C430.359 197.146 429.744 196.978 429.212 196.641C428.68 196.304 428.272 195.821 427.989 195.191C427.706 194.561 427.564 193.833 427.564 193.008C427.564 191.709 427.879 190.699 428.509 189.976C429.139 189.249 430.003 188.885 431.102 188.885C432.195 188.885 433.052 189.253 433.672 189.991C434.297 190.723 434.61 191.729 434.61 193.008ZM428.326 193.008C428.326 194.102 428.565 194.957 429.043 195.572C429.527 196.182 430.208 196.487 431.087 196.487C431.966 196.487 432.645 196.182 433.123 195.572C433.606 194.957 433.848 194.102 433.848 193.008C433.848 191.91 433.604 191.058 433.116 190.452C432.632 189.847 431.951 189.544 431.072 189.544C430.193 189.544 429.515 189.847 429.036 190.452C428.562 191.053 428.326 191.905 428.326 193.008ZM444.423 190.958C444.423 191.46 444.298 191.856 444.049 192.144C443.8 192.427 443.395 192.625 442.833 192.737V192.789C443.473 192.862 443.935 193.047 444.218 193.345C444.506 193.638 444.65 194.061 444.65 194.612C444.65 195.379 444.396 195.97 443.888 196.385C443.385 196.795 442.648 197 441.676 197H438.314V189.039H441.691C442.599 189.039 443.28 189.202 443.734 189.529C444.193 189.856 444.423 190.333 444.423 190.958ZM443.881 194.598C443.881 193.621 443.131 193.133 441.632 193.133H439.04V196.312H441.735C443.166 196.312 443.881 195.74 443.881 194.598ZM443.654 191.016C443.654 190.552 443.488 190.223 443.156 190.027C442.824 189.827 442.326 189.727 441.662 189.727H439.04V192.452H441.574C442.316 192.452 442.848 192.337 443.17 192.107C443.493 191.878 443.654 191.514 443.654 191.016ZM448.999 189.039V194.795L448.955 196.297L453.679 189.039H454.646V197H453.95V191.28L453.979 189.742L449.255 197H448.311V189.039H448.999ZM458.702 197H457.787L460.189 193.565C459.457 193.428 458.927 193.174 458.6 192.803C458.277 192.432 458.116 191.956 458.116 191.375C458.116 190.652 458.358 190.083 458.841 189.668C459.33 189.249 459.984 189.039 460.804 189.039H464.085V197H463.368V193.653H460.936L458.702 197ZM458.878 191.346C458.878 191.893 459.054 192.3 459.405 192.569C459.762 192.833 460.296 192.964 461.009 192.964H463.368V189.727H460.79C460.184 189.727 459.713 189.866 459.376 190.145C459.044 190.418 458.878 190.818 458.878 191.346ZM477.977 189.039H478.877L475.311 192.891L479.134 197H478.16L474.395 192.964V197H473.655V189.039H474.395V192.906L477.977 189.039ZM485.446 197.146C484.22 197.146 483.327 196.688 482.765 195.77H482.714L482.736 196.385C482.755 196.746 482.765 197.142 482.765 197.571V200.604H482.04V189.039H482.655L482.794 190.174H482.838C483.385 189.314 484.259 188.885 485.46 188.885C486.535 188.885 487.353 189.239 487.914 189.947C488.48 190.65 488.764 191.675 488.764 193.023C488.764 194.332 488.466 195.347 487.87 196.07C487.279 196.788 486.471 197.146 485.446 197.146ZM485.431 196.502C486.247 196.502 486.876 196.199 487.321 195.594C487.77 194.988 487.995 194.141 487.995 193.052C487.995 190.713 487.15 189.544 485.46 189.544C484.533 189.544 483.852 189.8 483.417 190.313C482.982 190.821 482.765 191.651 482.765 192.803V193.038C482.765 194.283 482.973 195.171 483.388 195.704C483.808 196.236 484.489 196.502 485.431 196.502ZM495.691 197.146C494.534 197.146 493.63 196.79 492.981 196.077C492.336 195.364 492.014 194.366 492.014 193.082C492.014 191.812 492.327 190.796 492.952 190.035C493.577 189.268 494.419 188.885 495.479 188.885C496.416 188.885 497.156 189.212 497.698 189.866C498.24 190.521 498.511 191.409 498.511 192.532V193.118H492.776C492.786 194.212 493.04 195.047 493.538 195.623C494.041 196.199 494.758 196.487 495.691 196.487C496.145 196.487 496.543 196.456 496.885 196.392C497.231 196.329 497.668 196.192 498.196 195.982V196.641C497.747 196.836 497.332 196.968 496.951 197.037C496.57 197.11 496.15 197.146 495.691 197.146ZM495.479 189.529C494.712 189.529 494.097 189.783 493.633 190.291C493.169 190.794 492.898 191.521 492.82 192.474H497.742C497.742 191.551 497.542 190.831 497.141 190.313C496.741 189.791 496.187 189.529 495.479 189.529ZM508.705 199.703H507.987V197H501.893V199.703H501.175V196.312H501.703C502.367 195.379 502.879 194.297 503.241 193.067C503.602 191.836 503.792 190.494 503.812 189.039H507.643V196.312H508.705V199.703ZM506.917 196.312V189.712H504.442C504.325 192.354 503.685 194.554 502.523 196.312H506.917ZM512.585 189.039V194.795L512.541 196.297L517.265 189.039H518.232V197H517.536V191.28L517.565 189.742L512.841 197H511.896V189.039H512.585ZM527.459 189.668H524.808V197H524.09V189.668H521.373V189.039H527.459V189.668ZM535.434 197L535.25 195.74H535.192C534.792 196.253 534.379 196.617 533.954 196.832C533.534 197.042 533.036 197.146 532.46 197.146C531.679 197.146 531.071 196.946 530.636 196.546C530.202 196.146 529.984 195.591 529.984 194.883C529.984 194.107 530.307 193.504 530.951 193.074C531.601 192.645 532.538 192.417 533.764 192.393L535.28 192.349V191.822C535.28 191.065 535.126 190.494 534.818 190.108C534.511 189.722 534.015 189.529 533.332 189.529C532.594 189.529 531.83 189.734 531.039 190.145L530.768 189.515C531.642 189.104 532.506 188.899 533.361 188.899C534.235 188.899 534.887 189.126 535.316 189.581C535.751 190.035 535.968 190.743 535.968 191.705V197H535.434ZM532.504 196.487C533.354 196.487 534.022 196.246 534.511 195.762C535.004 195.274 535.25 194.598 535.25 193.733V192.95L533.859 193.008C532.741 193.062 531.942 193.238 531.464 193.536C530.99 193.829 530.753 194.288 530.753 194.913C530.753 195.411 530.905 195.799 531.208 196.077C531.515 196.351 531.947 196.487 532.504 196.487ZM539.907 196.429C539.907 195.95 540.103 195.711 540.493 195.711C540.894 195.711 541.094 195.95 541.094 196.429C541.094 196.907 540.894 197.146 540.493 197.146C540.103 197.146 539.907 196.907 539.907 196.429ZM550.708 186.292H553.645C554.968 186.292 555.939 186.517 556.56 186.966C557.18 187.415 557.49 188.094 557.49 189.002C557.49 189.622 557.299 190.14 556.918 190.555C556.542 190.965 555.991 191.229 555.263 191.346V191.39C556.118 191.517 556.745 191.788 557.146 192.203C557.551 192.613 557.753 193.187 557.753 193.924C557.753 194.91 557.426 195.669 556.772 196.202C556.118 196.734 555.19 197 553.989 197H550.708V186.292ZM551.455 191.06H553.813C554.819 191.06 555.549 190.894 556.003 190.562C556.462 190.225 556.691 189.7 556.691 188.987C556.691 188.274 556.433 187.757 555.915 187.435C555.402 187.112 554.636 186.951 553.615 186.951H551.455V191.06ZM551.455 191.719V196.341H553.974C555.957 196.341 556.948 195.535 556.948 193.924C556.948 192.454 555.903 191.719 553.813 191.719H551.455ZM562.154 192.393H564.688C566.558 192.393 567.493 193.128 567.493 194.598C567.493 195.354 567.232 195.945 566.709 196.37C566.187 196.79 565.438 197 564.461 197H561.429V189.039H562.154V192.393ZM562.154 193.082V196.312H564.578C565.267 196.312 565.796 196.167 566.167 195.879C566.539 195.591 566.724 195.159 566.724 194.583C566.724 194.056 566.561 193.675 566.233 193.44C565.906 193.201 565.34 193.082 564.534 193.082H562.154ZM569.603 197H568.885V189.039H569.603V197ZM578.463 189.668H574.508V197H573.783V189.039H578.463V189.668ZM588.181 193.008C588.181 194.307 587.866 195.323 587.236 196.055C586.606 196.783 585.737 197.146 584.629 197.146C583.931 197.146 583.315 196.978 582.783 196.641C582.251 196.304 581.843 195.821 581.56 195.191C581.277 194.561 581.135 193.833 581.135 193.008C581.135 191.709 581.45 190.699 582.08 189.976C582.71 189.249 583.574 188.885 584.673 188.885C585.767 188.885 586.624 189.253 587.244 189.991C587.869 190.723 588.181 191.729 588.181 193.008ZM581.897 193.008C581.897 194.102 582.136 194.957 582.615 195.572C583.098 196.182 583.779 196.487 584.658 196.487C585.537 196.487 586.216 196.182 586.694 195.572C587.178 194.957 587.419 194.102 587.419 193.008C587.419 191.91 587.175 191.058 586.687 190.452C586.204 189.847 585.522 189.544 584.644 189.544C583.765 189.544 583.086 189.847 582.607 190.452C582.134 191.053 581.897 191.905 581.897 193.008ZM598.382 199.703H597.665V197H591.571V199.703H590.853V196.312H591.38C592.044 195.379 592.557 194.297 592.918 193.067C593.28 191.836 593.47 190.494 593.49 189.039H597.32V196.312H598.382V199.703ZM596.595 196.312V189.712H594.12C594.002 192.354 593.363 194.554 592.201 196.312H596.595ZM602.299 189.039V192.532H607.353V189.039H608.071V197H607.353V193.162H602.299V197H601.574V189.039H602.299ZM612.969 192.393H615.503C617.374 192.393 618.309 193.128 618.309 194.598C618.309 195.354 618.047 195.945 617.525 196.37C617.002 196.79 616.253 197 615.276 197H612.244V189.039H612.969V192.393ZM612.969 193.082V196.312H615.394C616.082 196.312 616.612 196.167 616.983 195.879C617.354 195.591 617.54 195.159 617.54 194.583C617.54 194.056 617.376 193.675 617.049 193.44C616.722 193.201 616.155 193.082 615.35 193.082H612.969ZM620.418 197H619.7V189.039H620.418V197ZM627.814 197.146C626.657 197.146 625.753 196.79 625.104 196.077C624.459 195.364 624.137 194.366 624.137 193.082C624.137 191.812 624.45 190.796 625.075 190.035C625.7 189.268 626.542 188.885 627.602 188.885C628.539 188.885 629.279 189.212 629.821 189.866C630.363 190.521 630.634 191.409 630.634 192.532V193.118H624.899C624.909 194.212 625.163 195.047 625.661 195.623C626.164 196.199 626.881 196.487 627.814 196.487C628.268 196.487 628.666 196.456 629.008 196.392C629.354 196.329 629.792 196.192 630.319 195.982V196.641C629.87 196.836 629.455 196.968 629.074 197.037C628.693 197.11 628.273 197.146 627.814 197.146ZM627.602 189.529C626.835 189.529 626.22 189.783 625.756 190.291C625.292 190.794 625.021 191.521 624.943 192.474H629.865C629.865 191.551 629.665 190.831 629.264 190.313C628.864 189.791 628.31 189.529 627.602 189.529ZM646.224 199.703H645.506V197H639.413V199.703H638.695V196.312H639.222C639.886 195.379 640.399 194.297 640.76 193.067C641.122 191.836 641.312 190.494 641.332 189.039H645.162V196.312H646.224V199.703ZM644.437 196.312V189.712H641.961C641.844 192.354 641.205 194.554 640.042 196.312H644.437ZM654.924 197H654.206V189.712H651.386C651.24 191.641 651.059 193.113 650.844 194.129C650.634 195.14 650.361 195.884 650.024 196.363C649.692 196.836 649.26 197.073 648.728 197.073C648.537 197.073 648.371 197.054 648.229 197.015V196.355C648.322 196.385 648.454 196.399 648.625 196.399C649.177 196.399 649.621 195.818 649.958 194.656C650.3 193.489 650.559 191.617 650.734 189.039H654.924V197ZM658.973 197H658.057L660.459 193.565C659.727 193.428 659.197 193.174 658.87 192.803C658.548 192.432 658.387 191.956 658.387 191.375C658.387 190.652 658.628 190.083 659.112 189.668C659.6 189.249 660.254 189.039 661.075 189.039H664.356V197H663.638V193.653H661.207L658.973 197ZM659.148 191.346C659.148 191.893 659.324 192.3 659.676 192.569C660.032 192.833 660.567 192.964 661.28 192.964H663.638V189.727H661.06C660.455 189.727 659.983 189.866 659.646 190.145C659.314 190.418 659.148 190.818 659.148 191.346ZM674.651 189.039V192.532H679.705V189.039H680.422V197H679.705V193.162H674.651V197H673.926V189.039H674.651ZM689.43 197L689.247 195.74H689.188C688.788 196.253 688.375 196.617 687.95 196.832C687.53 197.042 687.032 197.146 686.456 197.146C685.675 197.146 685.067 196.946 684.632 196.546C684.198 196.146 683.98 195.591 683.98 194.883C683.98 194.107 684.303 193.504 684.947 193.074C685.597 192.645 686.534 192.417 687.76 192.393L689.276 192.349V191.822C689.276 191.065 689.122 190.494 688.814 190.108C688.507 189.722 688.011 189.529 687.328 189.529C686.59 189.529 685.826 189.734 685.035 190.145L684.764 189.515C685.638 189.104 686.502 188.899 687.357 188.899C688.231 188.899 688.883 189.126 689.312 189.581C689.747 190.035 689.964 190.743 689.964 191.705V197H689.43ZM686.5 196.487C687.35 196.487 688.019 196.246 688.507 195.762C689 195.274 689.247 194.598 689.247 193.733V192.95L687.855 193.008C686.737 193.062 685.938 193.238 685.46 193.536C684.986 193.829 684.75 194.288 684.75 194.913C684.75 195.411 684.901 195.799 685.204 196.077C685.511 196.351 685.943 196.487 686.5 196.487ZM699.47 196.312H703.439V189.039H704.165V197H694.05V189.039H694.775V196.312H698.745V189.039H699.47V196.312ZM711.553 197.146C710.396 197.146 709.493 196.79 708.843 196.077C708.199 195.364 707.876 194.366 707.876 193.082C707.876 191.812 708.189 190.796 708.814 190.035C709.439 189.268 710.281 188.885 711.341 188.885C712.278 188.885 713.018 189.212 713.56 189.866C714.102 190.521 714.373 191.409 714.373 192.532V193.118H708.638C708.648 194.212 708.902 195.047 709.4 195.623C709.903 196.199 710.621 196.487 711.553 196.487C712.007 196.487 712.405 196.456 712.747 196.392C713.094 196.329 713.531 196.192 714.058 195.982V196.641C713.609 196.836 713.194 196.968 712.813 197.037C712.432 197.11 712.012 197.146 711.553 197.146ZM711.341 189.529C710.574 189.529 709.959 189.783 709.495 190.291C709.031 190.794 708.76 191.521 708.682 192.474H713.604C713.604 191.551 713.404 190.831 713.003 190.313C712.603 189.791 712.049 189.529 711.341 189.529ZM722.75 189.668H718.795V197H718.07V189.039H722.75V189.668ZM732.468 193.008C732.468 194.307 732.153 195.323 731.523 196.055C730.894 196.783 730.024 197.146 728.916 197.146C728.218 197.146 727.603 196.978 727.07 196.641C726.538 196.304 726.13 195.821 725.847 195.191C725.564 194.561 725.422 193.833 725.422 193.008C725.422 191.709 725.737 190.699 726.367 189.976C726.997 189.249 727.861 188.885 728.96 188.885C730.054 188.885 730.911 189.253 731.531 189.991C732.156 190.723 732.468 191.729 732.468 193.008ZM726.184 193.008C726.184 194.102 726.423 194.957 726.902 195.572C727.385 196.182 728.066 196.487 728.945 196.487C729.824 196.487 730.503 196.182 730.981 195.572C731.465 194.957 731.707 194.102 731.707 193.008C731.707 191.91 731.462 191.058 730.974 190.452C730.491 189.847 729.81 189.544 728.931 189.544C728.052 189.544 727.373 189.847 726.895 190.452C726.421 191.053 726.184 191.905 726.184 193.008ZM741.137 192.217C741.137 188.76 742.111 186.79 744.06 186.307C744.743 186.136 745.397 185.992 746.022 185.875C746.652 185.752 747.209 185.645 747.692 185.552L747.824 186.182L746.945 186.351C745.495 186.624 744.538 186.834 744.074 186.98C743.415 187.171 742.897 187.627 742.521 188.35C742.15 189.073 741.938 190.062 741.884 191.316H741.928C742.451 190.696 742.958 190.254 743.452 189.991C743.945 189.722 744.453 189.588 744.975 189.588C745.952 189.588 746.699 189.903 747.216 190.533C747.734 191.163 747.993 192.059 747.993 193.221C747.993 194.456 747.695 195.42 747.099 196.114C746.503 196.802 745.666 197.146 744.587 197.146C743.493 197.146 742.644 196.719 742.038 195.865C741.438 195.01 741.137 193.794 741.137 192.217ZM744.646 196.487C745.48 196.487 746.118 196.209 746.557 195.652C747.001 195.096 747.224 194.295 747.224 193.25C747.224 192.259 747.026 191.512 746.63 191.009C746.24 190.501 745.664 190.247 744.902 190.247C744.335 190.247 743.786 190.425 743.254 190.782C742.727 191.133 742.265 191.622 741.87 192.247C741.87 193.121 741.977 193.887 742.192 194.546C742.412 195.206 742.729 195.694 743.144 196.011C743.559 196.329 744.06 196.487 744.646 196.487ZM756.517 197L756.333 195.74H756.275C755.875 196.253 755.462 196.617 755.037 196.832C754.617 197.042 754.119 197.146 753.543 197.146C752.762 197.146 752.154 196.946 751.719 196.546C751.285 196.146 751.067 195.591 751.067 194.883C751.067 194.107 751.39 193.504 752.034 193.074C752.684 192.645 753.621 192.417 754.847 192.393L756.363 192.349V191.822C756.363 191.065 756.209 190.494 755.901 190.108C755.594 189.722 755.098 189.529 754.415 189.529C753.677 189.529 752.913 189.734 752.122 190.145L751.851 189.515C752.725 189.104 753.589 188.899 754.444 188.899C755.318 188.899 755.97 189.126 756.399 189.581C756.834 190.035 757.051 190.743 757.051 191.705V197H756.517ZM753.587 196.487C754.437 196.487 755.105 196.246 755.594 195.762C756.087 195.274 756.333 194.598 756.333 193.733V192.95L754.942 193.008C753.824 193.062 753.025 193.238 752.547 193.536C752.073 193.829 751.836 194.288 751.836 194.913C751.836 195.411 751.988 195.799 752.291 196.077C752.598 196.351 753.03 196.487 753.587 196.487ZM761.862 189.039V192.532H766.916V189.039H767.633V197H766.916V193.162H761.862V197H761.137V189.039H761.862ZM776.128 189.039H777.029L773.462 192.891L777.285 197H776.311L772.546 192.964V197H771.807V189.039H772.546V192.906L776.128 189.039ZM785.025 197L784.842 195.74H784.784C784.383 196.253 783.971 196.617 783.546 196.832C783.126 197.042 782.628 197.146 782.052 197.146C781.271 197.146 780.663 196.946 780.228 196.546C779.793 196.146 779.576 195.591 779.576 194.883C779.576 194.107 779.898 193.504 780.543 193.074C781.192 192.645 782.13 192.417 783.355 192.393L784.872 192.349V191.822C784.872 191.065 784.718 190.494 784.41 190.108C784.103 189.722 783.607 189.529 782.923 189.529C782.186 189.529 781.422 189.734 780.631 190.145L780.36 189.515C781.234 189.104 782.098 188.899 782.953 188.899C783.827 188.899 784.479 189.126 784.908 189.581C785.343 190.035 785.56 190.743 785.56 191.705V197H785.025ZM782.096 196.487C782.945 196.487 783.614 196.246 784.103 195.762C784.596 195.274 784.842 194.598 784.842 193.733V192.95L783.451 193.008C782.333 193.062 781.534 193.238 781.056 193.536C780.582 193.829 780.345 194.288 780.345 194.913C780.345 195.411 780.497 195.799 780.799 196.077C781.107 196.351 781.539 196.487 782.096 196.487ZM790.473 195.257L790.561 195.411C790.195 196.705 789.77 197.879 789.287 198.934H788.811C789.187 197.591 789.455 196.365 789.616 195.257H790.473ZM803.17 197.146C801.945 197.146 801.051 196.688 800.49 195.77H800.438L800.46 196.385C800.48 196.746 800.49 197.142 800.49 197.571V200.604H799.765V189.039H800.38L800.519 190.174H800.563C801.11 189.314 801.984 188.885 803.185 188.885C804.259 188.885 805.077 189.239 805.639 189.947C806.205 190.65 806.488 191.675 806.488 193.023C806.488 194.332 806.19 195.347 805.595 196.07C805.004 196.788 804.196 197.146 803.17 197.146ZM803.156 196.502C803.971 196.502 804.601 196.199 805.045 195.594C805.495 194.988 805.719 194.141 805.719 193.052C805.719 190.713 804.875 189.544 803.185 189.544C802.257 189.544 801.576 189.8 801.142 190.313C800.707 190.821 800.49 191.651 800.49 192.803V193.038C800.49 194.283 800.697 195.171 801.112 195.704C801.532 196.236 802.213 196.502 803.156 196.502ZM815.034 197L814.851 195.74H814.792C814.392 196.253 813.979 196.617 813.555 196.832C813.135 197.042 812.637 197.146 812.061 197.146C811.279 197.146 810.671 196.946 810.237 196.546C809.802 196.146 809.585 195.591 809.585 194.883C809.585 194.107 809.907 193.504 810.552 193.074C811.201 192.645 812.139 192.417 813.364 192.393L814.88 192.349V191.822C814.88 191.065 814.727 190.494 814.419 190.108C814.111 189.722 813.616 189.529 812.932 189.529C812.195 189.529 811.431 189.734 810.64 190.145L810.369 189.515C811.243 189.104 812.107 188.899 812.961 188.899C813.835 188.899 814.487 189.126 814.917 189.581C815.352 190.035 815.569 190.743 815.569 191.705V197H815.034ZM812.104 196.487C812.954 196.487 813.623 196.246 814.111 195.762C814.604 195.274 814.851 194.598 814.851 193.733V192.95L813.459 193.008C812.341 193.062 811.543 193.238 811.064 193.536C810.591 193.829 810.354 194.288 810.354 194.913C810.354 195.411 810.505 195.799 810.808 196.077C811.116 196.351 811.548 196.487 812.104 196.487ZM821.156 192.474C822.596 192.474 823.316 191.978 823.316 190.987C823.316 190.513 823.15 190.152 822.818 189.903C822.486 189.654 822.013 189.529 821.397 189.529C821.007 189.529 820.643 189.576 820.306 189.668C819.969 189.756 819.608 189.886 819.222 190.057L818.951 189.456C819.801 189.075 820.626 188.885 821.427 188.885C822.296 188.885 822.955 189.065 823.404 189.427C823.854 189.788 824.078 190.289 824.078 190.928C824.078 191.851 823.604 192.439 822.657 192.693V192.737C823.248 192.884 823.678 193.128 823.946 193.47C824.215 193.807 824.349 194.239 824.349 194.766C824.349 195.503 824.078 196.084 823.536 196.509C822.999 196.934 822.252 197.146 821.295 197.146C820.777 197.146 820.304 197.098 819.874 197C819.449 196.897 819.098 196.763 818.819 196.597V195.872C819.322 196.111 819.757 196.275 820.123 196.363C820.489 196.446 820.88 196.487 821.295 196.487C822.018 196.487 822.579 196.336 822.979 196.033C823.385 195.726 823.587 195.289 823.587 194.722C823.587 194.17 823.395 193.763 823.009 193.499C822.623 193.235 822.044 193.104 821.273 193.104H820.167V192.474H821.156ZM826.604 189.039H827.351L829.035 193.506C829.548 194.878 829.873 195.804 830.009 196.282H830.053C830.258 195.652 830.593 194.712 831.057 193.462L832.741 189.039H833.488L829.921 198.289C829.633 199.041 829.392 199.549 829.196 199.812C829.001 200.076 828.771 200.274 828.508 200.406C828.249 200.538 827.934 200.604 827.563 200.604C827.285 200.604 826.975 200.552 826.633 200.45V199.82C826.916 199.898 827.221 199.937 827.548 199.937C827.797 199.937 828.017 199.878 828.208 199.761C828.398 199.644 828.569 199.461 828.72 199.212C828.876 198.968 829.055 198.577 829.255 198.04C829.46 197.508 829.592 197.161 829.65 197L826.604 189.039ZM840.027 196.224L840.481 194.942L842.774 189.039H843.777V197H843.089V189.917C842.981 190.225 842.867 190.54 842.745 190.862C842.627 191.185 841.832 193.23 840.357 197H839.712L837.508 191.404C837.415 191.18 837.327 190.943 837.244 190.694C837.166 190.445 837.078 190.176 836.98 189.888V197H836.321V189.039H837.281L839.581 194.898C839.761 195.372 839.91 195.813 840.027 196.224ZM851.159 197.146C850.001 197.146 849.098 196.79 848.449 196.077C847.804 195.364 847.482 194.366 847.482 193.082C847.482 191.812 847.794 190.796 848.419 190.035C849.044 189.268 849.887 188.885 850.946 188.885C851.884 188.885 852.624 189.212 853.166 189.866C853.708 190.521 853.979 191.409 853.979 192.532V193.118H848.244C848.253 194.212 848.507 195.047 849.005 195.623C849.508 196.199 850.226 196.487 851.159 196.487C851.613 196.487 852.011 196.456 852.353 196.392C852.699 196.329 853.136 196.192 853.664 195.982V196.641C853.214 196.836 852.799 196.968 852.418 197.037C852.038 197.11 851.618 197.146 851.159 197.146ZM850.946 189.529C850.18 189.529 849.564 189.783 849.101 190.291C848.637 190.794 848.366 191.521 848.288 192.474H853.209C853.209 191.551 853.009 190.831 852.609 190.313C852.208 189.791 851.654 189.529 850.946 189.529ZM860.891 197.146C859.734 197.146 858.831 196.79 858.181 196.077C857.537 195.364 857.214 194.366 857.214 193.082C857.214 191.812 857.527 190.796 858.152 190.035C858.777 189.268 859.619 188.885 860.679 188.885C861.616 188.885 862.356 189.212 862.898 189.866C863.44 190.521 863.711 191.409 863.711 192.532V193.118H857.976C857.986 194.212 858.24 195.047 858.738 195.623C859.241 196.199 859.958 196.487 860.891 196.487C861.345 196.487 861.743 196.456 862.085 196.392C862.432 196.329 862.869 196.192 863.396 195.982V196.641C862.947 196.836 862.532 196.968 862.151 197.037C861.77 197.11 861.35 197.146 860.891 197.146ZM860.679 189.529C859.912 189.529 859.297 189.783 858.833 190.291C858.369 190.794 858.098 191.521 858.02 192.474H862.942C862.942 191.551 862.742 190.831 862.341 190.313C861.941 189.791 861.387 189.529 860.679 189.529ZM872.462 189.668H869.811V197H869.093V189.668H866.375V189.039H872.462V189.668ZM878.781 197.146C877.644 197.146 876.752 196.788 876.108 196.07C875.463 195.352 875.141 194.351 875.141 193.067C875.141 191.749 875.476 190.723 876.145 189.991C876.813 189.253 877.729 188.885 878.891 188.885C879.58 188.885 880.239 189.004 880.869 189.244L880.671 189.888C879.982 189.659 879.384 189.544 878.876 189.544C877.9 189.544 877.16 189.847 876.657 190.452C876.154 191.053 875.903 191.919 875.903 193.052C875.903 194.126 876.154 194.969 876.657 195.579C877.16 196.185 877.863 196.487 878.767 196.487C879.489 196.487 880.161 196.358 880.781 196.099V196.773C880.273 197.022 879.606 197.146 878.781 197.146ZM884.119 197H883.204L885.606 193.565C884.874 193.428 884.344 193.174 884.017 192.803C883.694 192.432 883.533 191.956 883.533 191.375C883.533 190.652 883.775 190.083 884.258 189.668C884.747 189.249 885.401 189.039 886.221 189.039H889.502V197H888.785V193.653H886.353L884.119 197ZM884.295 191.346C884.295 191.893 884.471 192.3 884.822 192.569C885.179 192.833 885.713 192.964 886.426 192.964H888.785V189.727H886.207C885.601 189.727 885.13 189.866 884.793 190.145C884.461 190.418 884.295 190.818 884.295 191.346ZM893.529 196.429C893.529 195.95 893.725 195.711 894.115 195.711C894.516 195.711 894.716 195.95 894.716 196.429C894.716 196.907 894.516 197.146 894.115 197.146C893.725 197.146 893.529 196.907 893.529 196.429Z" fill="black"/>
<rect y="48" width="160" height="8" fill="#F0C52E"/>
<path d="M29.98 55.228H31.33V60.412H28.45V58H22.15V60.412H19.27V55.228H20.548C21.208 54.28 21.538 52.888 21.538 51.052V45.4H29.98V55.228ZM23.608 55.228H27.1V48.1H24.418V51.088C24.418 52.876 24.148 54.256 23.608 55.228ZM46.9395 56.362C45.6675 57.622 44.1195 58.252 42.2955 58.252C40.4715 58.252 38.9235 57.622 37.6515 56.362C36.3795 55.102 35.7435 53.548 35.7435 51.7C35.7435 49.852 36.3795 48.298 37.6515 47.038C38.9235 45.778 40.4715 45.148 42.2955 45.148C44.1195 45.148 45.6675 45.778 46.9395 47.038C48.2115 48.298 48.8475 49.852 48.8475 51.7C48.8475 53.548 48.2115 55.102 46.9395 56.362ZM39.6675 54.4C40.3755 55.096 41.2515 55.444 42.2955 55.444C43.3395 55.444 44.2095 55.096 44.9055 54.4C45.6135 53.704 45.9675 52.804 45.9675 51.7C45.9675 50.596 45.6135 49.696 44.9055 49C44.2095 48.304 43.3395 47.956 42.2955 47.956C41.2515 47.956 40.3755 48.304 39.6675 49C38.9715 49.696 38.6235 50.596 38.6235 51.7C38.6235 52.804 38.9715 53.704 39.6675 54.4ZM60.0811 58.252C58.1971 58.252 56.6311 57.628 55.3831 56.38C54.1471 55.12 53.5291 53.56 53.5291 51.7C53.5291 49.84 54.1471 48.286 55.3831 47.038C56.6311 45.778 58.1971 45.148 60.0811 45.148C61.2091 45.148 62.2531 45.412 63.2131 45.94C64.1731 46.456 64.9291 47.164 65.4811 48.064L62.9971 49.504C62.7211 49.012 62.3251 48.634 61.8091 48.37C61.2931 48.094 60.7171 47.956 60.0811 47.956C58.9651 47.956 58.0711 48.298 57.3991 48.982C56.7391 49.666 56.4091 50.572 56.4091 51.7C56.4091 52.828 56.7391 53.734 57.3991 54.418C58.0711 55.102 58.9651 55.444 60.0811 55.444C60.7171 55.444 61.2931 55.306 61.8091 55.03C62.3371 54.754 62.7331 54.376 62.9971 53.896L65.4811 55.336C64.9411 56.236 64.1911 56.95 63.2311 57.478C62.2711 57.994 61.2211 58.252 60.0811 58.252ZM78.8908 45.4V48.172H75.6508V58H72.7708V48.172H69.5308V45.4H78.8908ZM90.865 58L90.235 56.02H85.555L84.925 58H81.775L86.059 45.4H89.731L94.015 58H90.865ZM86.419 53.32H89.371L87.895 48.694L86.419 53.32ZM106.501 51.466C107.533 52.126 108.049 53.074 108.049 54.31C108.049 55.402 107.659 56.29 106.879 56.974C106.099 57.658 105.133 58 103.981 58H98.6894V45.4H103.621C104.749 45.4 105.691 45.736 106.447 46.408C107.215 47.068 107.599 47.932 107.599 49C107.599 50.008 107.233 50.83 106.501 51.466ZM103.621 48.1H101.569V50.332H103.621C103.945 50.332 104.209 50.23 104.413 50.026C104.617 49.81 104.719 49.54 104.719 49.216C104.719 48.892 104.617 48.628 104.413 48.424C104.209 48.208 103.945 48.1 103.621 48.1ZM103.981 55.3C104.341 55.3 104.629 55.192 104.845 54.976C105.061 54.748 105.169 54.454 105.169 54.094C105.169 53.734 105.061 53.446 104.845 53.23C104.629 53.002 104.341 52.888 103.981 52.888H101.569V55.3H103.981ZM123.27 58H119.994L115.962 52.168V58H113.082V45.4H115.962V50.872L119.814 45.4H123.09L118.842 51.538L123.27 58ZM136.311 58L135.681 56.02H131.001L130.371 58H127.221L131.505 45.4H135.177L139.461 58H136.311ZM131.865 53.32H134.817L133.341 48.694L131.865 53.32Z" fill="black"/>
<rect y="109" width="160" height="8" fill="#F0C52E"/>
<path d="M32.28 106.4V109.172H27.96V119H25.08V106.4H32.28ZM43.7037 119L43.0737 117.02H38.3937L37.7637 119H34.6137L38.8977 106.4H42.5697L46.8537 119H43.7037ZM39.2577 114.32H42.2097L40.7337 109.694L39.2577 114.32ZM56.298 106.4C57.534 106.4 58.578 106.82 59.43 107.66C60.282 108.5 60.708 109.52 60.708 110.72C60.708 111.92 60.282 112.94 59.43 113.78C58.578 114.62 57.534 115.04 56.298 115.04H54.408V119H51.528V106.4H56.298ZM56.298 112.34C56.742 112.34 57.108 112.184 57.396 111.872C57.684 111.56 57.828 111.176 57.828 110.72C57.828 110.264 57.684 109.88 57.396 109.568C57.108 109.256 56.742 109.1 56.298 109.1H54.408V112.34H56.298ZM72.4896 119L71.8596 117.02H67.1796L66.5496 119H63.3996L67.6836 106.4H71.3556L75.6396 119H72.4896ZM68.0436 114.32H70.9956L69.5196 109.694L68.0436 114.32ZM87.154 106.4H90.034V119H87.154V113.996H83.194V119H80.314V106.4H83.194V111.224H87.154V106.4ZM104.257 106.4V109.172H101.017V119H98.1368V109.172H94.8968V106.4H104.257ZM116.137 119V112.16L111.277 119H109.117V106.4H111.997V113.24L116.857 106.4H119.017V119H116.137ZM133.866 106.4V119H130.986V114.86H130.068L127.386 119H124.146L127.098 114.5C126.33 114.176 125.706 113.672 125.226 112.988C124.746 112.292 124.506 111.536 124.506 110.72C124.506 109.52 124.926 108.5 125.766 107.66C126.606 106.82 127.626 106.4 128.826 106.4H133.866ZM128.826 112.34H130.986V109.1H128.826C128.43 109.1 128.088 109.256 127.8 109.568C127.524 109.88 127.386 110.264 127.386 110.72C127.386 111.176 127.524 111.56 127.8 111.872C128.088 112.184 128.43 112.34 128.826 112.34Z" fill="black"/>
<rect y="155" width="277" height="40" fill="black"/>
<path d="M49.268 181H45.992L41.96 175.168V181H39.08V168.4H41.96V173.872L45.812 168.4H49.088L44.84 174.538L49.268 181ZM58.7176 168.4C59.9536 168.4 60.9976 168.82 61.8496 169.66C62.7016 170.5 63.1276 171.52 63.1276 172.72C63.1276 173.92 62.7016 174.94 61.8496 175.78C60.9976 176.62 59.9536 177.04 58.7176 177.04H56.8276V181H53.9476V168.4H58.7176ZM58.7176 174.34C59.1616 174.34 59.5276 174.184 59.8156 173.872C60.1036 173.56 60.2476 173.176 60.2476 172.72C60.2476 172.264 60.1036 171.88 59.8156 171.568C59.5276 171.256 59.1616 171.1 58.7176 171.1H56.8276V174.34H58.7176ZM71.0448 178.228H76.0848V181H68.1648V168.4H75.9948V171.172H71.0448V173.26H75.5448V175.996H71.0448V178.228ZM91.2097 178.228H92.5597V183.412H89.6797V181H83.3797V183.412H80.4997V178.228H81.7777C82.4377 177.28 82.7677 175.888 82.7677 174.052V168.4H91.2097V178.228ZM84.8377 178.228H88.3297V171.1H85.6477V174.088C85.6477 175.876 85.3777 177.256 84.8377 178.228ZM104.709 181V174.16L99.849 181H97.689V168.4H100.569V175.24L105.429 168.4H107.589V181H104.709ZM121.808 168.4V171.172H118.568V181H115.688V171.172H112.448V168.4H121.808Z" fill="#F7E296"/>
<path d="M1137.25 83.627C1145.4 83.627 1152 77.0232 1152 68.877C1152 60.7308 1145.4 54.127 1137.25 54.127C1129.1 54.127 1122.5 60.7308 1122.5 68.877C1122.5 77.0232 1129.1 83.627 1137.25 83.627Z" fill="white"/>
<path d="M1085.11 139.544L1078.04 157.419L1055.22 172.336C1053.05 173.568 1051.58 175.895 1051.58 178.566C1051.58 182.524 1054.79 185.733 1058.75 185.733C1060.28 185.733 1061.7 185.246 1062.87 184.423C1066.63 182.052 1085.22 170.339 1088.36 168.543C1091.86 166.543 1092.49 163.418 1092.49 163.418L1097.36 147.418C1097.36 147.418 1097.36 147.418 1091.61 144.793C1085.86 142.168 1085.11 139.544 1085.11 139.544Z" fill="white"/>
<path d="M1135.32 141.462C1135.32 141.462 1134.16 137.628 1130.74 136.295C1127.32 134.962 1112.66 128.545 1112.66 128.545L1128.07 102.961C1128.07 102.961 1131.91 93.961 1127.74 89.544C1123.57 85.127 1113.99 79.794 1113.99 79.794H1106.47L1122.27 52.993C1125.62 47.307 1123.71 39.912 1118.02 36.561L1068.63 7.447C1062.95 4.095 1055.55 6.005 1052.2 11.691L1005.14 91.519C1001.79 97.204 1003.7 104.599 1009.39 107.951L1058.78 137.064C1064.46 140.416 1071.86 138.505 1075.21 132.822L1098.14 93.919H1106.24L1091.49 120.128C1091.49 120.128 1086.36 129.342 1091.16 134.378C1095.37 138.794 1103.82 141.294 1103.82 141.294L1121.07 147.795L1126.17 179.086L1126.18 179.085C1126.73 182.498 1129.68 185.108 1133.25 185.108C1137.21 185.108 1140.42 181.899 1140.42 177.941C1140.42 177.752 1140.4 177.566 1140.39 177.381L1140.42 177.377L1135.32 141.462ZM1013.96 100.198C1012.56 99.372 1012.07 97.49 1012.9 96.09L1059.96 16.261C1060.78 14.86 1062.66 14.373 1064.06 15.199L1075.58 21.991L1025.48 106.989L1013.96 100.198ZM1067.46 128.252C1066.63 129.652 1064.75 130.139 1063.35 129.313L1033.23 111.559L1083.34 26.563L1113.45 44.316C1114.86 45.142 1115.34 47.023 1114.52 48.423L1096.02 79.795H1087.24L1067.32 94.222C1066.88 94.474 1066.47 94.775 1066.09 95.113L1066.06 95.135L1066.06 95.138C1064.62 96.45 1063.71 98.336 1063.71 100.442C1063.71 104.4 1066.91 107.609 1070.87 107.609C1072.42 107.609 1073.85 107.113 1075.02 106.278L1075.02 106.281L1075.1 106.223C1075.28 106.09 1075.45 105.95 1075.62 105.8L1085.28 98.016L1067.46 128.252Z" fill="white"/>
<path d="M1045.22 5.94302L998.161 85.772C994.81 91.457 996.719 98.852 1002.4 102.204L1051.79 131.317C1057.48 134.669 1064.88 132.758 1068.23 127.075L1115.28 47.246C1118.64 41.56 1116.73 34.165 1111.04 30.814L1061.65 1.70002C1055.96 -1.65198 1048.57 0.258023 1045.22 5.94302ZM1005.91 90.343L1052.97 10.514C1053.8 9.11302 1055.68 8.62602 1057.08 9.45202L1068.6 16.244L1018.5 101.242L1006.97 94.451C1005.57 93.625 1005.09 91.743 1005.91 90.343ZM1107.53 42.676L1060.47 122.505C1059.65 123.905 1057.76 124.392 1056.36 123.566L1026.25 105.812L1076.35 20.816L1106.47 38.569C1107.87 39.394 1108.35 41.275 1107.53 42.676Z" fill="#F0C42E"/>
<path d="M1131.25 77.833C1139.4 77.833 1146 71.2292 1146 63.083C1146 54.9368 1139.4 48.333 1131.25 48.333C1123.1 48.333 1116.5 54.9368 1116.5 63.083C1116.5 71.2292 1123.1 77.833 1131.25 77.833Z" fill="#3A3A3A"/>
<path d="M1077.88 133.75L1070.8 151.625L1047.98 166.542C1045.81 167.774 1044.34 170.101 1044.34 172.772C1044.34 176.73 1047.55 179.939 1051.51 179.939C1053.04 179.939 1054.46 179.452 1055.63 178.629C1059.39 176.258 1077.98 164.545 1081.13 162.749C1084.63 160.749 1085.25 157.624 1085.25 157.624L1090.13 141.624C1090.13 141.624 1090.13 141.624 1084.38 138.999C1078.63 136.374 1077.88 133.75 1077.88 133.75Z" fill="#3A3A3A"/>
<path d="M1128.08 135.668C1128.08 135.668 1126.93 131.834 1123.5 130.501C1120.08 129.168 1105.42 122.751 1105.42 122.751L1120.83 97.167C1120.83 97.167 1124.67 88.167 1120.5 83.75C1116.33 79.333 1106.75 74 1106.75 74H1080L1060.09 88.427C1059.64 88.68 1059.23 88.98 1058.86 89.318L1058.82 89.34L1058.83 89.343C1057.38 90.654 1056.47 92.541 1056.47 94.646C1056.47 98.604 1059.68 101.813 1063.64 101.813C1065.18 101.813 1066.61 101.317 1067.78 100.482L1067.79 100.485L1067.86 100.427C1068.04 100.294 1068.21 100.154 1068.38 100.004L1083.13 88.123H1099L1084.25 114.332C1084.25 114.332 1079.12 123.546 1083.92 128.582C1088.13 132.998 1096.58 135.498 1096.58 135.498L1113.83 141.999L1118.93 173.29L1118.94 173.289C1119.49 176.702 1122.44 179.312 1126.01 179.312C1129.97 179.312 1133.18 176.103 1133.18 172.145C1133.18 171.956 1133.16 171.77 1133.15 171.585L1133.18 171.581L1128.08 135.668Z" fill="#3A3A3A"/>
</svg>
